<svg width="24" height="24" viewBox="0 0 24 24" fill="none" xmlns="http://www.w3.org/2000/svg">
<path d="M15 13C16.8638 13 18.43 14.2748 18.874 16H20.5C20.7761 16 21 16.2239 21 16.5V17.5C21 17.7761 20.7761 18 20.5 18H18.874C18.43 19.7252 16.8638 21 15 21C13.1362 21 11.57 19.7252 11.126 18H3.5C3.22386 18 3 17.7761 3 17.5V16.5C3 16.2239 3.22386 16 3.5 16H11.126C11.57 14.2748 13.1362 13 15 13ZM15 15C13.8954 15 13 15.8954 13 17C13 18.1046 13.8954 19 15 19C16.1046 19 17 18.1046 17 17C17 15.8954 16.1046 15 15 15ZM9 3C10.8638 3 12.43 4.27477 12.874 6H20.5C20.7761 6 21 6.22386 21 6.5V7.5C21 7.77614 20.7761 8 20.5 8H12.874C12.43 9.72523 10.8638 11 9 11C7.13616 11 5.57002 9.72523 5.12598 8H3.5C3.22386 8 3 7.77614 3 7.5V6.5C3 6.22386 3.22386 6 3.5 6H5.12598C5.57002 4.27477 7.13616 3 9 3ZM9 5C7.89543 5 7 5.89543 7 7C7 8.10457 7.89543 9 9 9C10.1046 9 11 8.10457 11 7C11 5.89543 10.1046 5 9 5Z" fill="currentColor"/>
</svg>
