<svg width="24" height="24" viewBox="0 0 24 24" fill="none" xmlns="http://www.w3.org/2000/svg">
<path d="M19.6328 12C21.7977 12 23.0073 13.7834 22.999 15.502C22.9906 17.2372 21.9806 18.6353 20.9023 19.6943C20.0174 20.5634 18.9582 21.3237 18.1133 21.9297C17.9275 22.0629 17.7517 22.1887 17.5908 22.3066C17.239 22.5644 16.761 22.5643 16.4092 22.3066C16.2482 22.1887 16.0715 22.062 15.8857 21.9287C15.0408 21.3226 13.9817 20.5635 13.0967 19.6943C12.0185 18.6353 11.0085 17.2372 11 15.502C10.9918 13.7834 12.2023 12 14.3672 12C15.4321 12.0001 16.2848 12.3948 16.9971 12.9326C17.7119 12.394 18.5682 12 19.6328 12ZM13.5 1C14.6046 1 15.5 1.89543 15.5 3V5H17C18.6569 5 20 6.34315 20 8V9.5C20 9.77611 19.7761 10 19.5 10H18.5C18.2239 10 18 9.77611 18 9.5V8C18 7.44772 17.5523 7 17 7H7C6.44772 7 6 7.44772 6 8V18C6 18.5523 6.44772 19 7 19H9.79297C9.92558 19 10.0528 19.0528 10.1465 19.1465L11.1465 20.1465C11.4614 20.4615 11.2384 21 10.793 21H8V21.5C8 21.7761 7.77614 22 7.5 22H6.5C6.22386 22 6 21.7761 6 21.5V20.8291C4.83484 20.4173 4 19.3062 4 18V8C4 6.34315 5.34315 5 7 5H8.5V3C8.5 1.89543 9.39543 1 10.5 1H13.5ZM19.6328 14C18.9432 14 18.3632 14.3185 17.6953 14.9697C17.3069 15.3484 16.6872 15.3484 16.2988 14.9697C15.6295 14.3169 15.0551 14.0001 14.3672 14C13.5437 14 12.996 14.6337 13 15.4922C13.0045 16.4247 13.5512 17.3377 14.498 18.2676C15.2606 19.0164 16.1597 19.6618 17 20.2656C17.8402 19.6619 18.7386 19.0162 19.501 18.2676C20.4479 17.3377 20.9954 16.4246 21 15.4922C21.004 14.6338 20.4562 14 19.6328 14ZM10.5 5H13.5V3H10.5V5Z" fill="currentColor"/>
</svg>
