<svg width="24" height="24" viewBox="0 0 24 24" fill="none" xmlns="http://www.w3.org/2000/svg">
<path fill-rule="evenodd" clip-rule="evenodd" d="M10.3008 3.02557C11.3244 2.32481 12.6756 2.32481 13.6992 3.02557L20.5664 7.7287C20.8377 7.91452 21 8.22107 21 8.54901V19.008C20.9999 20.1081 20.1045 21.0002 19 21.0002H14.5C13.9478 21.0002 13.5001 20.5541 13.5 20.0041V15.0236H10.5V20.0041C10.4999 20.5541 10.0522 21.0002 9.5 21.0002H5C3.89549 21.0002 3.0001 20.1081 3 19.008V8.54901C3.00001 8.22107 3.16233 7.91452 3.43359 7.7287L10.3008 3.02557ZM12.5664 4.66717C12.2252 4.43364 11.7748 4.43364 11.4336 4.66717L5 9.07342V19.008H8.5V14.0275C8.5 13.4774 8.94772 13.0314 9.5 13.0314H14.5C15.0523 13.0314 15.5 13.4774 15.5 14.0275V19.008H19V9.07342L12.5664 4.66717Z" fill="currentColor"/>
</svg>
